<mxfile host="Electron" agent="Mozilla/5.0 (X11; Linux x86_64) AppleWebKit/537.36 (KHTML, like Gecko) draw.io/28.2.5 Chrome/138.0.7204.251 Electron/37.5.1 Safari/537.36" version="28.2.5">
  <diagram name="Page-1" id="lISww9e3cb2DXeQuA2hF">
    <mxGraphModel dx="1093" dy="685" grid="1" gridSize="10" guides="1" tooltips="1" connect="1" arrows="1" fold="1" page="1" pageScale="1" pageWidth="850" pageHeight="1100" math="0" shadow="0">
      <root>
        <mxCell id="0" />
        <mxCell id="1" parent="0" />
        <mxCell id="kAau69nhCFZr7sW0xjNL-1" value="Actor" style="shape=umlActor;verticalLabelPosition=bottom;verticalAlign=top;html=1;" vertex="1" parent="1">
          <mxGeometry x="70" y="170" width="30" height="60" as="geometry" />
        </mxCell>
        <mxCell id="kAau69nhCFZr7sW0xjNL-2" value="Se soigner" style="ellipse;whiteSpace=wrap;html=1;" vertex="1" parent="1">
          <mxGeometry x="680" y="410" width="140" height="70" as="geometry" />
        </mxCell>
        <mxCell id="kAau69nhCFZr7sW0xjNL-3" value="Se déplacer" style="ellipse;whiteSpace=wrap;html=1;" vertex="1" parent="1">
          <mxGeometry x="150" y="140" width="140" height="70" as="geometry" />
        </mxCell>
        <mxCell id="kAau69nhCFZr7sW0xjNL-4" value="Interargir" style="ellipse;whiteSpace=wrap;html=1;" vertex="1" parent="1">
          <mxGeometry x="150" y="220" width="140" height="70" as="geometry" />
        </mxCell>
        <mxCell id="kAau69nhCFZr7sW0xjNL-5" value="Combat" style="ellipse;whiteSpace=wrap;html=1;" vertex="1" parent="1">
          <mxGeometry x="210" y="410" width="140" height="70" as="geometry" />
        </mxCell>
        <mxCell id="kAau69nhCFZr7sW0xjNL-6" value="Acheter" style="ellipse;whiteSpace=wrap;html=1;" vertex="1" parent="1">
          <mxGeometry x="370" y="410" width="140" height="70" as="geometry" />
        </mxCell>
        <mxCell id="kAau69nhCFZr7sW0xjNL-7" value="récupérer" style="ellipse;whiteSpace=wrap;html=1;" vertex="1" parent="1">
          <mxGeometry x="530" y="410" width="140" height="70" as="geometry" />
        </mxCell>
      </root>
    </mxGraphModel>
  </diagram>
</mxfile>
